<?xml version="1.0" encoding="utf-8"?>
<!-- Generator: Adobe Illustrator 19.0.0, SVG Export Plug-In . SVG Version: 6.00 Build 0)  -->
<svg version="1.1" id="Layer_1" xmlns="http://www.w3.org/2000/svg" xmlns:xlink="http://www.w3.org/1999/xlink" x="0px" y="0px"
	 viewBox="0 0 16.7 24" style="enable-background:new 0 0 16.7 24;" xml:space="preserve">
<style type="text/css">
	.st0{fill:#FFFFFF;}
</style>
<path id="XMLID_43_" class="st0" d="M16.6,12c0,0.1,0,0.1-0.1,0.2c-0.2,0.9-0.5,1.8-0.8,2.7c-0.3,0.7-0.7,1.4-1.1,2
	c-0.6,0.8-1.4,1.5-2.3,2c-0.8,0.5-1.6,0.7-2.5,0.8c-0.5,0.1-1,0.1-1.5,0.1c-0.4,0-0.8-0.1-1.1-0.2c-0.8-0.2-1.5-0.5-2.1-0.9
	c-0.6-0.4-1.2-0.9-1.6-1.5c-0.3-0.4-0.5-0.9-0.6-1.4c-0.1-0.7,0-1.4,0.3-2c0.2-0.3,0.3-0.6,0.5-0.9c0.3-0.4,0.7-0.8,1.1-1.2
	c0.4-0.4,0.9-0.7,1.4-1c0,0,0.1-0.1,0.1-0.1c0.1,0,0.1-0.1,0.1-0.2c-0.1-0.3-0.1-0.5-0.2-0.8c0-0.1-0.1-0.1-0.2-0.2
	c-0.1,0-0.1,0-0.2-0.1C4.9,9.1,4.2,8.5,3.7,7.7c-0.3-0.5-0.4-1-0.5-1.5c0-0.2,0-0.5,0.1-0.7c0.1-0.3,0.1-0.3-0.2-0.5
	C3,4.9,3,4.9,2.9,4.8C2.7,4.7,2.6,4.6,2.5,4.5C2.3,4.2,2.1,3.9,1.9,3.6C1.7,3.1,1.5,2.7,1.5,2.1c0-0.4,0-0.7,0.1-1.1
	C1.7,0.9,1.8,0.8,2,0.7c0.6-0.1,1.1,0,1.6,0.1C3.8,0.9,4,0.9,4.2,1c0.1,0,0.3,0,0.4-0.1c0.3-0.2,0.6-0.3,0.9-0.5
	C6.2,0.2,6.9,0,7.7,0c0.6,0,1.2,0.1,1.8,0.4c0.8,0.3,1.3,0.8,1.9,1.4c0.2,0.3,0.4,0.6,0.5,0.9c0.2,0.5,0.3,1,0.4,1.6
	c0,0.2,0,0.4,0,0.6c-0.1,0.4-0.2,0.9-0.3,1.3c-0.2,0.5-0.5,0.9-0.8,1.4c-0.3,0.4-0.5,0.7-0.9,1C9.8,8.9,9.4,9.2,9,9.6
	c0,0-0.1,0.1-0.1,0.1C8.7,9.7,8.7,9.8,8.7,9.9c0,0.1,0.1,0.1,0.2,0.1C9.1,10,9.4,10,9.6,10c0.4,0,0.7,0.1,1,0.2
	c0.2,0.1,0.5,0.2,0.7,0.3c0.5,0.2,1,0.5,1.5,0.8c0.2,0.1,0.5,0.2,0.7,0.4c0.2,0.1,0.5,0.1,0.7,0.1c0.3-0.1,0.6-0.1,0.8-0.2
	c0.3-0.1,0.6-0.2,0.9-0.2c0.2,0,0.4,0,0.6,0.1C16.6,11.6,16.6,11.8,16.6,12z M12.2,20.5c0-0.1-0.1-0.2-0.2-0.3
	c-0.2-0.3-0.4-0.4-0.8-0.4c-0.3,0-0.6,0.1-0.8,0.2c-0.4,0.2-0.7,0.4-1,0.7c-0.1,0.1-0.2,0.1-0.3,0.1c-0.2,0-0.4-0.1-0.6-0.1
	c-0.4-0.1-0.8,0-1.2,0.2c-0.3,0.2-0.5,0.4-0.5,0.8c0,0.2,0,0.4,0.1,0.5c0.1,0.3,0.2,0.5,0.4,0.7c0.4,0.5,1,0.9,1.7,1
	c0.7,0.1,1.3-0.1,1.9-0.4c0.5-0.3,0.9-0.6,1.3-1c0.4-0.4,0.3-0.3,0.3-0.9C12.4,21.3,12.4,20.9,12.2,20.5z M3.8,20.9
	c0.4-0.1,0.5-0.3,0.5-0.7c0-0.1,0-0.2-0.1-0.3c-0.3-1-0.7-1.9-1.1-2.8c0-0.1-0.1-0.2-0.2-0.2c-0.2-0.2-0.3-0.3-0.5-0.5
	c-0.3-0.3-0.7-0.5-1.1-0.5c-0.5-0.1-1,0.2-1.2,0.7C0,16.8,0,17.1,0,17.4c0,0.5,0.2,1.1,0.4,1.5c0.3,0.6,0.6,1.1,1.1,1.5
	C2,20.8,2.5,21,3,21C3.3,21,3.5,21,3.8,20.9z"/>
</svg>
