<?xml version="1.0" encoding="iso-8859-1"?>
<svg xmlns="http://www.w3.org/2000/svg" xmlns:xlink="http://www.w3.org/1999/xlink" version="1.1" viewBox="0 0 463 463" enable-background="new 0 0 463 463" width="512px" height="512px">
  <g>
    <path d="m264.822,159l7.714,19.285c1.173,2.932 3.989,4.716 6.966,4.716 0.928,0 1.87-0.173 2.783-0.539 3.846-1.538 5.717-5.903 4.179-9.749l-39.225-98.061c-2.59-6.474-8.769-10.656-15.74-10.656s-13.149,4.183-15.738,10.656l-39.225,98.061c-1.538,3.846 0.333,8.211 4.179,9.749 3.841,1.537 8.21-0.332 9.749-4.178l7.714-19.284h66.644zm-35.134-78.776c0.325-0.813 0.935-1.226 1.811-1.226 0.877,0 1.487,0.413 1.813,1.227l25.51,63.775h-54.644l25.51-63.776z" fill="#FFFFFF"/>
    <path d="M151.793,331.531c4.5-5.448,7.207-12.43,7.207-20.032c0-17.369-14.131-31.5-31.5-31.5h-24C90.542,280,80,290.542,80,303.5   v32v64c0,4.142,3.357,7.5,7.5,7.5h48c21.78,0,39.5-17.72,39.5-39.5C175,351.527,165.465,337.749,151.793,331.531z M95,303.5   c0-4.687,3.813-8.5,8.5-8.5h24c9.098,0,16.5,7.402,16.5,16.5s-7.402,16.5-16.5,16.5H95V303.5z M135.5,392H95v-49h32.5h8   c13.51,0,24.5,10.991,24.5,24.5S149.01,392,135.5,392z" fill="#FFFFFF"/>
    <path d="m379.209,383.308c-10.909,7.611-24.288,10.349-37.677,7.705-18.808-3.713-33.908-18.856-37.576-37.681-2.845-14.602 0.832-29.418 10.087-40.651 9.259-11.237 22.91-17.682 37.452-17.682 8.606,0 17.054,2.28 24.434,6.594 0.031,0.061 0.071,0.184 0.071,0.338v9.568c0,4.142 3.357,7.5 7.5,7.5s7.5-3.358 7.5-7.5v-9.568c0-5.48-2.835-10.549-7.399-13.229-9.7-5.694-20.802-8.704-32.105-8.704-19.039,0-36.909,8.435-49.028,23.143-12.115,14.703-16.938,34.042-13.233,53.058 4.82,24.743 24.67,44.647 49.394,49.528 4.311,0.851 8.621,1.271 12.888,1.271 12.978,0 25.528-3.892 36.276-11.391 3.397-2.37 4.23-7.045 1.86-10.442-2.372-3.392-7.046-4.226-10.444-1.857z" fill="#FFFFFF"/>
    <path d="m431.5,224h-85.181c2.965-4.802 4.681-10.454 4.681-16.5v-176c0-17.369-14.131-31.5-31.5-31.5h-176c-17.369,0-31.5,14.131-31.5,31.5v176c0,6.046 1.716,11.698 4.681,16.5h-85.181c-17.369,0-31.5,14.131-31.5,31.5v176c0,17.369 14.131,31.5 31.5,31.5h176c9.607,0 18.218-4.328 24-11.131 5.782,6.803 14.393,11.131 24,11.131h176c17.369,0 31.5-14.131 31.5-31.5v-176c0-17.369-14.131-31.5-31.5-31.5zm-304.5-16.5v-176c0-9.098 7.402-16.5 16.5-16.5h176c9.098,0 16.5,7.402 16.5,16.5v176c0,9.098-7.402,16.5-16.5,16.5h-64-48-64c-9.098,0-16.5-7.402-16.5-16.5zm80.5,240.5h-176c-9.098,0-16.5-7.402-16.5-16.5v-176c0-9.098 7.402-16.5 16.5-16.5h112 64c9.098,0 16.5,7.402 16.5,16.5v176c0,9.098-7.402,16.5-16.5,16.5zm240.5-16.5c0,9.098-7.402,16.5-16.5,16.5h-176c-9.098,0-16.5-7.402-16.5-16.5v-176c0-9.098 7.402-16.5 16.5-16.5h64 112c9.098,0 16.5,7.402 16.5,16.5v176z" fill="#FFFFFF"/>
  </g>
</svg>
