<?xml version="1.0" encoding="utf-8"?>
<!-- Generator: Adobe Illustrator 18.0.0, SVG Export Plug-In . SVG Version: 6.00 Build 0)  -->
<!DOCTYPE svg PUBLIC "-//W3C//DTD SVG 1.1//EN" "http://www.w3.org/Graphics/SVG/1.1/DTD/svg11.dtd">
<svg version="1.1" id="Capa_1" xmlns="http://www.w3.org/2000/svg" xmlns:xlink="http://www.w3.org/1999/xlink" x="0px" y="0px"
	 viewBox="0 0 512 512" enable-background="new 0 0 512 512" xml:space="preserve">
<g>
	<path fill="#FFFFFF" d="M134.8,308.6c-3.8,3.8-3.8,9.9,0,13.7c3.8,3.8,9.9,3.8,13.7,0c9.1-9.1,23.9-9.1,32.9,0
		c1.9,1.9,4.4,2.8,6.8,2.8c2.5,0,5-0.9,6.8-2.8c3.8-3.8,3.8-9.9,0-13.7C178.4,292,151.4,292,134.8,308.6z"/>
	<path fill="#FFFFFF" d="M316.9,322.3c3.8,3.8,9.9,3.8,13.7,0c9.1-9.1,23.9-9.1,32.9,0c1.9,1.9,4.4,2.8,6.8,2.8c2.5,0,5-0.9,6.8-2.8
		c3.8-3.8,3.8-9.9,0-13.7c-16.6-16.6-43.7-16.6-60.3,0C313.2,312.4,313.2,318.5,316.9,322.3z"/>
	<path fill="#FFFFFF" d="M499.4,408.8c-14.8-37.1-48.3-59.6-61.4-67.3c21.9-5.7,38.1-25.6,38.1-49.2c0-10.3-3.1-20.3-8.9-28.7
		c3.3-15.2,5-30.7,5-46.4C472.1,97.4,374.7,0,254.9,0C135.1,0,37.7,97.4,37.7,217.2c0,16.5,1.9,32.9,5.5,48.9
		c-4.6,7.7-7.3,16.6-7.3,26.2c0,23.6,16.2,43.5,38.1,49.2c-13.1,7.7-46.6,30.1-61.4,67.3c-18.2,45.7-0.6,94.8,0.2,96.9
		c0.9,2.6,2.9,4.6,5.5,5.6c1.2,0.5,2.4,0.7,3.6,0.7c1.5,0,2.9-0.3,4.3-1c2-1,48.5-24.5,66.8-70.2l0,0c3.3-8.2,5.4-16.4,6.6-24.5
		c6.3,11.4,13.9,22.1,22.6,31.9c34,38.2,82.7,60.2,133.8,60.2c51.1,0,99.9-21.9,133.8-60.2c8.8-9.9,16.3-20.6,22.6-31.9
		c1.3,8.1,3.4,16.4,6.6,24.5c18.2,45.7,64.8,69.2,66.8,70.2c1.4,0.7,2.8,1,4.3,1c1.2,0,2.4-0.2,3.6-0.7c2.6-1,4.6-3.1,5.5-5.6
		C500,503.6,517.7,454.5,499.4,408.8z M456.7,292.3C456.7,292.3,456.7,292.3,456.7,292.3c0,14-9.2,25.9-21.8,30v-20.3
		c2.8,0.5,5.7,1.1,8.6,1.5c0.5,0.1,1,0.1,1.5,0.1c3.6,0,6.9-2,8.6-5.3L456.7,292.3z M55.3,292.3c0-14,9.2-25.8,21.8-29.9v59.8
		C64.4,318.2,55.3,306.3,55.3,292.3z M74.9,433.6c-10.7,26.8-33.8,45.1-47.2,54c-3.7-15.6-7.8-44.9,2.8-71.6
		c10.7-26.8,33.8-45.1,47.2-54C81.4,377.6,85.6,406.9,74.9,433.6z M415.6,329.4c0,39.1-14.3,76.7-40.2,105.9
		C345.1,469.4,301.6,489,256,489s-89.1-19.6-119.4-53.7c-25.9-29.2-40.2-66.8-40.2-105.9v-72.9c6.5-3.3,17.1-9.7,27.6-20.6
		c11.5-11.8,24.6-30.9,30.2-59.3c5.5,7.9,12.6,16.8,21,25.8c32.1,34,70.2,52,110,52c3.5,0,6.8-1.9,8.5-5c1.7-3.1,1.6-6.9-0.3-9.9
		c-10.7-16.9-12.8-34.1-11.9-47.5c5.9,10.2,14.1,22.4,25,35.1c21.1,24.6,56.3,55,109,69.9L415.6,329.4L415.6,329.4z M321.8,215.3
		c-24.6-28.5-34.5-55.1-34.6-55.4c-1.3-3.7-4.8-6.3-8.8-6.4c-4-0.1-7.6,2.2-9.2,5.8c-0.7,1.7-15.5,36.6-0.3,74.7
		c-28.5-4.1-55-19-79.2-44.4c-22-23.1-33.5-46.7-33.6-46.9c-2.2-4.5-7.5-6.7-12.3-4.8c-3.7,1.5-6,5.2-6.1,9.2
		c-0.1,61.2-36.4,85.3-49.6,92c-2.6,1.3-21.4,5.8-28.4,10.3C57.9,238.8,57,228,57,217.2c0-109.1,88.8-197.9,197.9-197.9
		c109.1,0,197.9,88.8,197.9,197.9c0,15.7-1.8,31.3-5.5,46.3c0,0,0,0.1,0,0.1c-1.4,5.9-7.7,19.4-7.7,19.4
		C392.6,274.3,353,251.5,321.8,215.3z M484.3,487.6c-13.4-8.8-36.5-27.1-47.2-54c-10.7-26.8-6.5-56-2.8-71.6
		c13.4,8.8,36.6,27.2,47.2,54C492.1,442.7,487.9,472,484.3,487.6z"/>
	<path fill="#FFFFFF" d="M289.6,386.8c-18.5,18.5-48.7,18.5-67.2,0c-3.8-3.8-9.9-3.8-13.7,0c-3.8,3.8-3.8,9.9,0,13.7
		c13.1,13.1,30.2,19.6,47.4,19.6s34.3-6.5,47.4-19.6c3.8-3.8,3.8-9.9,0-13.7C299.6,383.1,293.4,383.1,289.6,386.8z"/>
</g>
</svg>
