<?xml version="1.0" encoding="utf-8"?>
<!-- Generator: Adobe Illustrator 18.0.0, SVG Export Plug-In . SVG Version: 6.00 Build 0)  -->
<!DOCTYPE svg PUBLIC "-//W3C//DTD SVG 1.1//EN" "http://www.w3.org/Graphics/SVG/1.1/DTD/svg11.dtd">
<svg version="1.1" id="Capa_1" xmlns="http://www.w3.org/2000/svg" xmlns:xlink="http://www.w3.org/1999/xlink" x="0px" y="0px"
	 viewBox="0 0 512 512" enable-background="new 0 0 512 512" xml:space="preserve">
<g>
	<g id="Layer_5_41_">
		<g>
			<circle fill="#FF9966" cx="254.6" cy="173.2" r="17.7"/>
			<path fill="#FF9966" d="M391.1,405.1c-8.5-4.6-7.2-12.8-7.2-18V315c24.9-5.1,79.7-5.6,79.7-54.8c0-24.3-19.8-33.2-44-30.8
				c-19.3,2-28.4,14.8-61.1,2.5c-4.1-1.6-15.7-11.8-9.1-19.8c16.9-20.6,26.5-47.5,26.5-76.5c0-4.7,0-14.2,4.2-16
				c21.8-9.1,36.5-31.6,36.5-57.1C416.6,28,389.1,0,355.2,0c-18.4,0-34.9,8.2-46.1,21.3c-1,1.1-2.7,3.5-7.1,1.7
				c-15.3-7.2-28.1-9.3-46-9.3c-19.3,0-33.3,2.6-49.4,10.8c-5.1,1.6-8.5-3.7-11.1-6.2C184.5,6.9,169.2,0,152.3,0
				c-33.9,0-61.4,28-61.4,62.5c0,26.5,16.2,49.2,39.1,58.2c2.2,0.9,5.6,3.5,6.2,14.9c1.4,28.7,9.8,55.2,26.1,76
				c6.1,7.7,0.2,17.7-8.9,20.5c-33.3,10.3-41.7-0.8-60.9-2.8c-24.2-2.5-44,6.4-44,30.8c0,47.9,54.8,49.6,79.7,54.6v72.3
				c0,5.3,0.7,12.7-10.3,19.6c-30.9,12.7-75.3,13.7-75.3,57c0,26.3,21.8,52.7,47.6,47.6c32.3-6.4,49.3-17.1,98.4-39.3
				c10.6-4.8,18-2.4,22.7-1.8c13.9,2,29,2.7,44.7,2.7c17.6,0,34.3-0.9,49.6-3.4c3.8-0.6,12.8-1,21.1,2.4
				c47.9,22.3,63.3,33,95.1,39.4c25.8,5.2,47.6-21.3,47.6-47.6C469.5,420.5,421.9,418,391.1,405.1z M314,190.9
				c0,25.8-26.6,46.7-59.5,46.7c-32.8,0-59.5-20.9-59.5-46.7c0-25.8,26.6-46.7,59.5-46.7C287.4,144.3,314,165.2,314,190.9z M169,114
				c0-11.7,9.5-21.2,21.2-21.2c11.7,0,21.2,9.5,21.2,21.2s-9.5,21.2-21.2,21.2C178.5,135.2,169,125.7,169,114z M327.8,376.6
				c0,39.7-32.2,57.5-71.8,57.5c-39.7,0-71.8-17.8-71.8-57.5v-33.8c0-39.7,32.2-71.8,71.8-71.8c39.7,0,71.8,32.2,71.8,71.8V376.6z
				 M311.4,135.2c-11.7,0-21.2-9.5-21.2-21.2s9.5-21.2,21.2-21.2c11.7,0,21.2,9.5,21.2,21.2S323.1,135.2,311.4,135.2z"/>
		</g>
	</g>
</g>
</svg>
